<svg xmlns="http://www.w3.org/2000/svg" width="93.469" height="107.799" viewBox="0 0 93.469 107.799">
  <path id="Trazado_1092642" data-name="Trazado 1092642" d="M34.567,107.1a2.107,2.107,0,0,0,1.567.7h89.253a2.12,2.12,0,0,0,2.093-2.333L125.251,85a23.043,23.043,0,0,0-4.631-11.811,23.308,23.308,0,0,0-11.858-8.156L95.219,60.847a1.269,1.269,0,0,1-.887-1.074l-.177-1.605h3.837c8.907.277,15-10.442,10.143-17.914a40.721,40.721,0,0,1-5.483-16.5,2.106,2.106,0,0,0,1.459-2A21.781,21.781,0,0,0,82.353,0H79.287A21.781,21.781,0,0,0,57.531,21.756a2.1,2.1,0,0,0,1.341,1.96,40.756,40.756,0,0,1-5.484,16.538c-4.857,7.476,1.237,18.19,10.144,17.914H67.6l-.176,1.6a1.268,1.268,0,0,1-.889,1.074L52.8,65.042a22.867,22.867,0,0,0-2.7.976,2.105,2.105,0,0,0,1.674,3.864,18.607,18.607,0,0,1,2.211-.8l.03-.009,13.747-4.206a5.474,5.474,0,0,0,3.843-4.639l1.062-9.62a21.8,21.8,0,0,0,16.406-.088l1.074,9.717a5.478,5.478,0,0,0,3.828,4.634l13.558,4.193.031.009a19.064,19.064,0,0,1,9.711,6.677,18.83,18.83,0,0,1,3.785,9.667c0,.01,0,.02,0,.029l.546,5.011a12.989,12.989,0,0,1-8.172-1.988V83.518a2.105,2.105,0,1,0-4.211,0v3.968h-8.691c-6.576,0-11.7,1.251-15.831,3.95a11.858,11.858,0,0,1,5.985-5.985,2.105,2.105,0,0,0-1.669-3.866,16.168,16.168,0,0,0-8.241,8.276,16.168,16.168,0,0,0-8.242-8.276,2.105,2.105,0,1,0-1.669,3.866,11.925,11.925,0,0,1,6.076,6.178,24.122,24.122,0,0,0-14.075-4.144H52.3V83.518a2.105,2.105,0,0,0-4.211,0v4.949a12.992,12.992,0,0,1-8.172,1.989l.546-5.012,0-.03a18.584,18.584,0,0,1,.612-3.268,2.105,2.105,0,0,0-4.054-1.139A22.784,22.784,0,0,0,36.271,85l-2.23,20.461a2.111,2.111,0,0,0,.526,1.634Zm52.21-60.206a17.622,17.622,0,0,1-6.016,1.063c-9.431.185-17.714-8.135-17.547-17.547V23.863h3.851a17.355,17.355,0,0,0,13.707-6.649A17.382,17.382,0,0,0,94.48,23.863h3.828v6.546A17.672,17.672,0,0,1,86.778,46.893Zm17.029,4.368a7.612,7.612,0,0,1-5.817,2.7h-4.3l-.62-5.607a21.916,21.916,0,0,0,8.539-11.712,42.29,42.29,0,0,0,2.925,5.8A7.575,7.575,0,0,1,103.807,51.261ZM79.287,4.211h3.066a17.571,17.571,0,0,1,17.42,15.44H94.48a13.61,13.61,0,0,1-11.952-7.337,2.105,2.105,0,0,0-1.767-.96h-.014a2.106,2.106,0,0,0-1.768.984,13.5,13.5,0,0,1-11.914,7.313h-5.2a17.571,17.571,0,0,1,17.42-15.44ZM63.534,53.958c-5.728.181-9.664-6.717-6.544-11.52a42.3,42.3,0,0,0,2.925-5.8,21.906,21.906,0,0,0,8.75,11.855l-.6,5.464Zm58.531,40.676.976,8.953h-8.109a14.765,14.765,0,0,0,.71-9.552A16.994,16.994,0,0,0,122.065,94.634ZM79.145,99.348a2.152,2.152,0,0,0,3.487-.322c4.06-5.132,9.437-7.329,17.9-7.329h9.628a11.024,11.024,0,0,1,.044,11.89H51.316A11.024,11.024,0,0,1,51.36,91.7H62.869a20.11,20.11,0,0,1,16.277,7.651ZM45.881,94.035a14.764,14.764,0,0,0,.71,9.552H38.482l.976-8.953A17,17,0,0,0,45.881,94.035Z" transform="translate(-34.029)" fill="#7d8c48"/>
</svg>
