<svg id="viajero" xmlns="http://www.w3.org/2000/svg" width="94.388" height="107.801" viewBox="0 0 94.388 107.801">
  <path id="Trazado_1092651" data-name="Trazado 1092651" d="M123.974,91.176c-.709-8.772-7.616-17.773-15.635-20.365L97.525,68.024a1.827,1.827,0,0,1-1.241-1.454A23.013,23.013,0,0,0,96.515,52.6l-.025-.083a21.846,21.846,0,0,0,4.517-13.324V34.37a2.11,2.11,0,0,0,1.5-2.014V30.935A23.593,23.593,0,0,0,88.889,9.607a2.105,2.105,0,0,0-1.773,3.819A19.379,19.379,0,0,1,98.226,29.3c-2.458-1.077-6.35-3.741-8.147-7.5a2.123,2.123,0,0,0-3.634-.228c-.042.062-3.827,5.59-9.791,6.713V23.957a2.113,2.113,0,0,0-3.991-.938c-1.683,3.7-8.433,7.127-12.937,7.141A19.377,19.377,0,0,1,70.871,13.437a2.105,2.105,0,0,0-1.778-3.817A23.6,23.6,0,0,0,55.5,30.935v1.421a2.1,2.1,0,0,0,1.59,2.039v4.8a21.848,21.848,0,0,0,4.517,13.324l-.025.083a23.015,23.015,0,0,0,.231,13.968,1.827,1.827,0,0,1-1.241,1.454l-10.8,2.784a9.662,9.662,0,0,0-1.676.594c-3.419,1.3-6.783,4.2-9.476,8.178a26.011,26.011,0,0,0-4.492,11.578l-2.257,21.749a2.118,2.118,0,0,0,2.094,2.323h90.169a2.118,2.118,0,0,0,2.094-2.323ZM96.33,72.063l.091.025,10.878,2.8a5.52,5.52,0,0,1,4.163,5,8.909,8.909,0,0,1-1.2,4.882H87.581a2.105,2.105,0,0,0,0,4.211h22.69a8.8,8.8,0,0,1,.086,8.759H87.54a2.105,2.105,0,0,0,0,4.211h22.634a8.812,8.812,0,0,1,.094,9.066H81.154V73.857a24.965,24.965,0,0,0,11.992-4.1A6.032,6.032,0,0,0,96.33,72.063ZM81.154,61.054a21.991,21.991,0,0,0,11.87-4.918,18.8,18.8,0,0,1-.69,8.962,19.914,19.914,0,0,1-11.18,4.533ZM65.763,65.1a18.8,18.8,0,0,1-.69-8.963,21.99,21.99,0,0,0,11.871,4.918v8.578A19.914,19.914,0,0,1,65.763,65.1ZM61.3,34.233a21.378,21.378,0,0,0,11.142-4.612v.967h0a2.106,2.106,0,0,0,2.105,2.105c6.294,0,10.929-3.737,13.394-6.341A22.064,22.064,0,0,0,96.8,33.286v5.909a17.747,17.747,0,1,1-35.495,0Zm.376,37.855a6.02,6.02,0,0,0,3.274-2.331,24.966,24.966,0,0,0,11.992,4.1v37.161H47.832a8.842,8.842,0,0,1,.092-9.066H70.407a2.105,2.105,0,0,0,0-4.211H47.743a8.858,8.858,0,0,1,.086-8.759H70.448a2.105,2.105,0,0,0,0-4.211H47.833a8.907,8.907,0,0,1-1.2-4.882h0a5.471,5.471,0,0,1,2.929-4.524,5.573,5.573,0,0,1,1.244-.478ZM38.316,91.572A22.363,22.363,0,0,1,42.462,81.4a13.237,13.237,0,0,0,1.72,5.475,12.985,12.985,0,0,0,0,13.125,13.4,13.4,0,0,0-.766,1.538,12.97,12.97,0,0,0-.221,9.481H36.3Zm76.592,19.447a13.05,13.05,0,0,0-.989-11.02,12.985,12.985,0,0,0,0-13.125,13.24,13.24,0,0,0,1.721-5.485,19.13,19.13,0,0,1,4.146,10.2l2.014,19.427Z" transform="translate(-31.854 -7.429)" fill="#7d8c48"/>
  <path id="Trazado_1092652" data-name="Trazado 1092652" d="M238.836,134.957h3.315a2.105,2.105,0,1,0,0-4.211h-1.778l1.382-4.081a2.106,2.106,0,0,0-3.989-1.351l-1.876,5.536a3.131,3.131,0,0,0,2.945,4.106Z" transform="translate(-192.796 -97.801)" fill="#7d8c48"/>
  <path id="Trazado_1092653" data-name="Trazado 1092653" d="M247.121,4.05A2.1,2.1,0,0,0,248.73.164,2.1,2.1,0,0,0,247.121,4.05Z" transform="translate(-200.776 0)" fill="#7d8c48"/>
</svg>
